<?xml version="1.0" encoding="utf-8"?>
<!-- Generator: Adobe Illustrator 19.1.0, SVG Export Plug-In . SVG Version: 6.00 Build 0)  -->
<svg version="1.1" id="Layer_1" xmlns="http://www.w3.org/2000/svg" xmlns:xlink="http://www.w3.org/1999/xlink" x="0px" y="0px"
	 viewBox="-247 371.4 100 100" style="enable-background:new -247 371.4 100 100;" xml:space="preserve">
<style type="text/css">
	.st0{fill:#171717;}
</style>
<path class="st0" d="M-197,396.4c-13.8,0-25,11.2-25,25s11.2,25,25,25s25-11.2,25-25S-183.2,396.4-197,396.4z M-187.4,425.3
	c-3,3.6-5.9,7.1-8.9,10.7c-0.2,0.3-0.5,0.4-0.7,0.3c-0.2,0-0.5-0.1-0.7-0.3c-3-3.6-5.9-7.1-8.9-10.7c-0.5-0.7-0.2-1.7,0.7-1.7
	c1.2,0,2.5,0,3.7,0c0-5.4,0-10.8,0-16.2c0-0.6,0.5-1,1-1c2.8,0,5.5,0,8.3,0c0.6,0,1,0.5,1,1c0,5.4,0,10.8,0,16.2c1.2,0,2.5,0,3.7,0
	C-187.1,423.6-186.8,424.7-187.4,425.3z"/>
</svg>
