<?xml version="1.0" encoding="utf-8"?>
<!-- Generator: Adobe Illustrator 19.1.0, SVG Export Plug-In . SVG Version: 6.00 Build 0)  -->
<svg version="1.1" id="Layer_1" xmlns="http://www.w3.org/2000/svg" xmlns:xlink="http://www.w3.org/1999/xlink" x="0px" y="0px"
	 viewBox="350 350 100 100" style="enable-background:new 350 350 100 100;" xml:space="preserve">
<style type="text/css">
	.st0{fill:#171717;}
</style>
<g>
	<path class="st0" d="M412.2,388.6c0,6.7-3.5,15.6-12.2,15.6c-9,0-12.2-8.9-12.2-15.6c0-6.7,3-13.6,12.2-13.6
		C409.5,375,412.2,381.9,412.2,388.6z"/>
	<path class="st0" d="M409.3,408.3c-1.3-0.5-3.6-0.9-5-0.9h-8.6c-1.4,0-3.7,0.4-5,0.9l-13.4,5.2c-1.3,0.5-2.4,2.1-2.4,3.5v5.5
		c0,1.4,1.2,2.6,2.6,2.6h44.9c1.4,0,2.6-1.2,2.6-2.6V417c0-1.4-1.1-3-2.4-3.5L409.3,408.3z"/>
</g>
</svg>
