<?xml version="1.0" encoding="utf-8"?>
<!-- Generator: Adobe Illustrator 19.1.0, SVG Export Plug-In . SVG Version: 6.00 Build 0)  -->
<svg version="1.1" id="Capa_1" xmlns="http://www.w3.org/2000/svg" xmlns:xlink="http://www.w3.org/1999/xlink" x="0px" y="0px"
	 viewBox="0 0 100 100" style="enable-background:new 0 0 100 100;" xml:space="preserve">
<style type="text/css">
	.st0{fill:#FFFFFF;}
</style>
<path class="st0" d="M50,25c-13.8,0-25,11.2-25,25c0,10.2,6.2,19,15,22.9c-0.1-1.7,0-3.8,0.4-5.7c0.5-2,3.2-13.6,3.2-13.6
	s-0.8-1.6-0.8-4c0-3.7,2.1-6.5,4.8-6.5c2.3,0,3.4,1.7,3.4,3.8c0,2.3-1.5,5.7-2.2,8.9c-0.6,2.7,1.3,4.8,3.9,4.8
	c4.7,0,7.9-6.1,7.9-13.3c0-5.5-3.7-9.6-10.4-9.6c-7.6,0-12.3,5.7-12.3,12c0,2.2,0.6,3.7,1.6,4.9c0.5,0.5,0.5,0.8,0.4,1.4
	c-0.1,0.5-0.4,1.6-0.5,2c-0.2,0.6-0.7,0.9-1.3,0.6c-3.5-1.4-5.1-5.3-5.1-9.6c0-7.1,6-15.6,17.9-15.6c9.5,0,15.8,6.9,15.8,14.3
	c0,9.8-5.5,17.1-13.5,17.1c-2.7,0-5.2-1.5-6.1-3.1c0,0-1.5,5.8-1.8,6.9c-0.5,1.9-1.6,3.9-2.5,5.4c2.2,0.7,4.6,1,7.1,1
	c13.8,0,25-11.2,25-25C75,36.2,63.8,25,50,25"/>
</svg>
