<?xml version="1.0" encoding="utf-8"?>
<!-- Generator: Adobe Illustrator 19.1.0, SVG Export Plug-In . SVG Version: 6.00 Build 0)  -->
<svg version="1.1" id="Capa_1" xmlns="http://www.w3.org/2000/svg" xmlns:xlink="http://www.w3.org/1999/xlink" x="0px" y="0px"
	 viewBox="0 0 100 100" style="enable-background:new 0 0 100 100;" xml:space="preserve">
<style type="text/css">
	.st0{fill:#171717;}
</style>
<path class="st0" d="M51.9,25v12.6h11.9v7.8H51.9v12.8c0,2.9,0.2,4.8,0.5,5.6c0.3,0.8,0.9,1.5,1.7,2c1.1,0.7,2.4,1,3.8,1
	c2.5,0,5-0.8,7.6-2.5v7.9c-2.1,1-4.1,1.7-5.8,2.1C57.9,74.8,56,75,54,75c-2.3,0-4.3-0.3-6.1-0.9c-1.8-0.6-3.3-1.4-4.5-2.5
	c-1.2-1.1-2.1-2.2-2.6-3.4c-0.5-1.2-0.7-2.9-0.7-5.2V45.5h-5.5v-7.1c2-0.6,3.6-1.6,5-2.7c1.4-1.2,2.5-2.6,3.4-4.3
	c0.8-1.7,1.4-3.8,1.8-6.4H51.9z"/>
</svg>
