<?xml version="1.0" encoding="utf-8"?>
<!-- Generator: Adobe Illustrator 19.1.0, SVG Export Plug-In . SVG Version: 6.00 Build 0)  -->
<svg version="1.1" id="Capa_1" xmlns="http://www.w3.org/2000/svg" xmlns:xlink="http://www.w3.org/1999/xlink" x="0px" y="0px"
	 viewBox="0 0 100 100" style="enable-background:new 0 0 100 100;" xml:space="preserve">
<style type="text/css">
	.st0{fill:#171717;}
</style>
<path class="st0" d="M80.8,30.9c-2.3,1-4.7,1.7-7.2,2c2.6-1.6,4.6-4,5.5-7c-2.4,1.4-5.1,2.5-8,3.1c-2.3-2.5-5.6-4-9.2-4
	c-7,0-12.6,5.7-12.6,12.6c0,1,0.1,2,0.3,2.9C39,40,29.8,34.9,23.5,27.3c-1.1,1.9-1.7,4-1.7,6.4c0,4.4,2.2,8.2,5.6,10.5
	c-2.1-0.1-4-0.6-5.7-1.6v0.2c0,6.1,4.4,11.2,10.1,12.4c-1.1,0.3-2.2,0.4-3.3,0.4c-0.8,0-1.6-0.1-2.4-0.2c1.6,5,6.3,8.7,11.8,8.8
	c-4.3,3.4-9.8,5.4-15.7,5.4c-1,0-2-0.1-3-0.2c5.6,3.6,12.2,5.7,19.3,5.7c23.2,0,35.9-19.2,35.9-35.9c0-0.5,0-1.1,0-1.6
	C76.9,35.7,79.1,33.4,80.8,30.9"/>
</svg>
